<svg width="170" height="75" viewBox="0 0 170 75" fill="none" xmlns="http://www.w3.org/2000/svg">
<rect x="0.5" y="0.5" width="169" height="74" rx="3.5" fill="white"/>
<rect x="0.5" y="0.5" width="169" height="74" rx="3.5" stroke="#444444"/>
<rect x="8.5" y="5.5" width="153" height="64" rx="32" fill="white"/>
<rect x="8.5" y="5.5" width="153" height="64" rx="32" stroke="#444444"/>
<path d="M68.5645 33H69.4727V39.4746L69.3945 40.5H68.5645V33ZM73.042 37.8145V37.917C73.042 38.3011 72.9964 38.6576 72.9053 38.9863C72.8141 39.3118 72.6807 39.5951 72.5049 39.8359C72.3291 40.0768 72.1143 40.264 71.8604 40.3975C71.6064 40.5309 71.3151 40.5977 70.9863 40.5977C70.651 40.5977 70.3564 40.5407 70.1025 40.4268C69.8519 40.3096 69.6403 40.1419 69.4678 39.9238C69.2952 39.7057 69.1569 39.4421 69.0527 39.1328C68.9518 38.8236 68.8818 38.4753 68.8428 38.0879V37.6387C68.8818 37.248 68.9518 36.8981 69.0527 36.5889C69.1569 36.2796 69.2952 36.016 69.4678 35.7979C69.6403 35.5765 69.8519 35.4089 70.1025 35.2949C70.3532 35.1777 70.6445 35.1191 70.9766 35.1191C71.3086 35.1191 71.6032 35.1842 71.8604 35.3145C72.1175 35.4414 72.3324 35.6237 72.5049 35.8613C72.6807 36.099 72.8141 36.3838 72.9053 36.7158C72.9964 37.0446 73.042 37.4108 73.042 37.8145ZM72.1338 37.917V37.8145C72.1338 37.5508 72.1094 37.3034 72.0605 37.0723C72.0117 36.8379 71.9336 36.6328 71.8262 36.457C71.7188 36.278 71.5771 36.138 71.4014 36.0371C71.2256 35.9329 71.0091 35.8809 70.752 35.8809C70.5241 35.8809 70.3255 35.9199 70.1562 35.998C69.9902 36.0762 69.8486 36.182 69.7314 36.3154C69.6143 36.4456 69.5182 36.5954 69.4434 36.7646C69.3717 36.9307 69.318 37.1032 69.2822 37.2822V38.459C69.3343 38.6868 69.4189 38.9066 69.5361 39.1182C69.6566 39.3265 69.8161 39.4974 70.0146 39.6309C70.2165 39.7643 70.4655 39.8311 70.7617 39.8311C71.0059 39.8311 71.2142 39.7822 71.3867 39.6846C71.5625 39.5837 71.7041 39.4453 71.8115 39.2695C71.9222 39.0938 72.0036 38.8903 72.0557 38.6592C72.1077 38.4281 72.1338 38.1807 72.1338 37.917ZM77.2998 39.5967V36.877C77.2998 36.6686 77.2575 36.488 77.1729 36.335C77.0915 36.1787 76.9678 36.0583 76.8018 35.9736C76.6357 35.889 76.4307 35.8467 76.1865 35.8467C75.9587 35.8467 75.7585 35.8857 75.5859 35.9639C75.4167 36.042 75.2832 36.1445 75.1855 36.2715C75.0911 36.3984 75.0439 36.5352 75.0439 36.6816H74.1406C74.1406 36.4928 74.1895 36.3057 74.2871 36.1201C74.3848 35.9346 74.5247 35.7669 74.707 35.6172C74.8926 35.4642 75.1139 35.3438 75.3711 35.2559C75.6315 35.1647 75.9212 35.1191 76.2402 35.1191C76.6243 35.1191 76.9629 35.1842 77.2559 35.3145C77.5521 35.4447 77.7832 35.6416 77.9492 35.9053C78.1185 36.1657 78.2031 36.4928 78.2031 36.8867V39.3477C78.2031 39.5234 78.2178 39.7106 78.2471 39.9092C78.2796 40.1077 78.3268 40.2786 78.3887 40.4219V40.5H77.4463C77.4007 40.3958 77.3649 40.2575 77.3389 40.085C77.3128 39.9092 77.2998 39.7464 77.2998 39.5967ZM77.4561 37.2969L77.4658 37.9316H76.5527C76.2956 37.9316 76.0661 37.9528 75.8643 37.9951C75.6624 38.0342 75.4932 38.0944 75.3564 38.1758C75.2197 38.2572 75.1156 38.3597 75.0439 38.4834C74.9723 38.6038 74.9365 38.7454 74.9365 38.9082C74.9365 39.0742 74.974 39.2256 75.0488 39.3623C75.1237 39.499 75.236 39.6081 75.3857 39.6895C75.5387 39.7676 75.7259 39.8066 75.9473 39.8066C76.224 39.8066 76.4681 39.748 76.6797 39.6309C76.8913 39.5137 77.0589 39.3704 77.1826 39.2012C77.3096 39.0319 77.3779 38.8675 77.3877 38.708L77.7734 39.1426C77.7507 39.2793 77.6888 39.4307 77.5879 39.5967C77.487 39.7627 77.3519 39.9222 77.1826 40.0752C77.0166 40.2249 76.818 40.3503 76.5869 40.4512C76.359 40.5488 76.1019 40.5977 75.8154 40.5977C75.4574 40.5977 75.1432 40.5277 74.873 40.3877C74.6061 40.2477 74.3978 40.0605 74.248 39.8262C74.1016 39.5885 74.0283 39.3232 74.0283 39.0303C74.0283 38.7471 74.0837 38.498 74.1943 38.2832C74.305 38.0651 74.4645 37.8844 74.6729 37.7412C74.8812 37.5947 75.1318 37.484 75.4248 37.4092C75.7178 37.3343 76.0449 37.2969 76.4062 37.2969H77.4561ZM81.8359 35.2168V35.9102H78.9795V35.2168H81.8359ZM79.9463 33.9326H80.8496V39.1914C80.8496 39.3704 80.8773 39.5055 80.9326 39.5967C80.988 39.6878 81.0596 39.748 81.1475 39.7773C81.2354 39.8066 81.3298 39.8213 81.4307 39.8213C81.5055 39.8213 81.5837 39.8148 81.665 39.8018C81.7497 39.7855 81.8132 39.7725 81.8555 39.7627L81.8604 40.5C81.7887 40.5228 81.6943 40.5439 81.5771 40.5635C81.4632 40.5863 81.3249 40.5977 81.1621 40.5977C80.9408 40.5977 80.7373 40.5537 80.5518 40.4658C80.3662 40.3779 80.2181 40.2314 80.1074 40.0264C80 39.818 79.9463 39.5381 79.9463 39.1865V33.9326ZM83.7988 33V40.5H82.8955V33H83.7988ZM83.584 37.6582L83.208 37.6436C83.2113 37.2822 83.265 36.9486 83.3691 36.6426C83.4733 36.3333 83.6198 36.0648 83.8086 35.8369C83.9974 35.609 84.222 35.4333 84.4824 35.3096C84.7461 35.1826 85.0374 35.1191 85.3564 35.1191C85.6169 35.1191 85.8512 35.1549 86.0596 35.2266C86.2679 35.2949 86.4453 35.4056 86.5918 35.5586C86.7415 35.7116 86.8555 35.9102 86.9336 36.1543C87.0117 36.3952 87.0508 36.6898 87.0508 37.0381V40.5H86.1426V37.0283C86.1426 36.7516 86.1019 36.5303 86.0205 36.3643C85.9391 36.195 85.8203 36.0729 85.6641 35.998C85.5078 35.9199 85.3158 35.8809 85.0879 35.8809C84.8633 35.8809 84.6582 35.9281 84.4727 36.0225C84.2904 36.1169 84.1325 36.2471 83.999 36.4131C83.8688 36.5791 83.7663 36.7695 83.6914 36.9844C83.6198 37.196 83.584 37.4206 83.584 37.6582ZM90.6152 35.2168V35.9102H87.7588V35.2168H90.6152ZM88.7256 33.9326H89.6289V39.1914C89.6289 39.3704 89.6566 39.5055 89.7119 39.5967C89.7673 39.6878 89.8389 39.748 89.9268 39.7773C90.0146 39.8066 90.109 39.8213 90.21 39.8213C90.2848 39.8213 90.363 39.8148 90.4443 39.8018C90.529 39.7855 90.5924 39.7725 90.6348 39.7627L90.6396 40.5C90.568 40.5228 90.4736 40.5439 90.3564 40.5635C90.2425 40.5863 90.1042 40.5977 89.9414 40.5977C89.7201 40.5977 89.5166 40.5537 89.3311 40.4658C89.1455 40.3779 88.9974 40.2314 88.8867 40.0264C88.7793 39.818 88.7256 39.5381 88.7256 39.1865V33.9326ZM94.9072 39.2793V35.2168H95.8154V40.5H94.9512L94.9072 39.2793ZM95.0781 38.166L95.4541 38.1562C95.4541 38.5078 95.4167 38.8333 95.3418 39.1328C95.2702 39.429 95.153 39.6862 94.9902 39.9043C94.8275 40.1224 94.6143 40.2933 94.3506 40.417C94.0869 40.5374 93.7663 40.5977 93.3887 40.5977C93.1315 40.5977 92.8955 40.5602 92.6807 40.4854C92.4691 40.4105 92.2868 40.2949 92.1338 40.1387C91.9808 39.9824 91.862 39.779 91.7773 39.5283C91.696 39.2777 91.6553 38.9766 91.6553 38.625V35.2168H92.5586V38.6348C92.5586 38.8724 92.5846 39.0693 92.6367 39.2256C92.6921 39.3786 92.7653 39.5007 92.8564 39.5918C92.9508 39.6797 93.055 39.7415 93.1689 39.7773C93.2861 39.8132 93.4066 39.8311 93.5303 39.8311C93.9144 39.8311 94.2188 39.7578 94.4434 39.6113C94.668 39.4616 94.8291 39.2614 94.9268 39.0107C95.0277 38.7568 95.0781 38.4753 95.0781 38.166ZM97.1875 33H98.0957V39.4746L98.0176 40.5H97.1875V33ZM101.665 37.8145V37.917C101.665 38.3011 101.619 38.6576 101.528 38.9863C101.437 39.3118 101.304 39.5951 101.128 39.8359C100.952 40.0768 100.737 40.264 100.483 40.3975C100.229 40.5309 99.9382 40.5977 99.6094 40.5977C99.2741 40.5977 98.9795 40.5407 98.7256 40.4268C98.4749 40.3096 98.2633 40.1419 98.0908 39.9238C97.9183 39.7057 97.7799 39.4421 97.6758 39.1328C97.5749 38.8236 97.5049 38.4753 97.4658 38.0879V37.6387C97.5049 37.248 97.5749 36.8981 97.6758 36.5889C97.7799 36.2796 97.9183 36.016 98.0908 35.7979C98.2633 35.5765 98.4749 35.4089 98.7256 35.2949C98.9762 35.1777 99.2676 35.1191 99.5996 35.1191C99.9316 35.1191 100.226 35.1842 100.483 35.3145C100.741 35.4414 100.955 35.6237 101.128 35.8613C101.304 36.099 101.437 36.3838 101.528 36.7158C101.619 37.0446 101.665 37.4108 101.665 37.8145ZM100.757 37.917V37.8145C100.757 37.5508 100.732 37.3034 100.684 37.0723C100.635 36.8379 100.557 36.6328 100.449 36.457C100.342 36.278 100.2 36.138 100.024 36.0371C99.8486 35.9329 99.6322 35.8809 99.375 35.8809C99.1471 35.8809 98.9486 35.9199 98.7793 35.998C98.6133 36.0762 98.4717 36.182 98.3545 36.3154C98.2373 36.4456 98.1413 36.5954 98.0664 36.7646C97.9948 36.9307 97.9411 37.1032 97.9053 37.2822V38.459C97.9574 38.6868 98.042 38.9066 98.1592 39.1182C98.2796 39.3265 98.4391 39.4974 98.6377 39.6309C98.8395 39.7643 99.0885 39.8311 99.3848 39.8311C99.6289 39.8311 99.8372 39.7822 100.01 39.6846C100.186 39.5837 100.327 39.4453 100.435 39.2695C100.545 39.0938 100.627 38.8903 100.679 38.6592C100.731 38.4281 100.757 38.1807 100.757 37.917Z" fill="black"/>
<rect x="81.5" y="58.5" width="7" height="7" rx="3.5" fill="white"/>
<rect x="81.5" y="58.5" width="7" height="7" rx="3.5" stroke="#444444"/>
</svg>
