<svg width="136" height="81" viewBox="0 0 136 81" fill="none" xmlns="http://www.w3.org/2000/svg">
<rect x="17.375" y="0.375" width="0.75" height="80.25" fill="white"/>
<rect x="17.375" y="0.375" width="0.75" height="80.25" stroke="#444444" stroke-width="0.75"/>
<rect x="117.875" y="0.375" width="0.75" height="80.25" fill="white"/>
<rect x="117.875" y="0.375" width="0.75" height="80.25" stroke="#444444" stroke-width="0.75"/>
<rect x="18.375" y="1.125" width="0.75" height="99.25" transform="rotate(-90 18.375 1.125)" fill="white"/>
<rect x="18.375" y="1.125" width="0.75" height="99.25" transform="rotate(-90 18.375 1.125)" stroke="#444444" stroke-width="0.75"/>
<rect x="18.5" y="1.5" width="99" height="79" rx="3.5" fill="white"/>
<rect x="18.5" y="1.5" width="99" height="79" rx="3.5" stroke="#444444"/>
<rect x="22.5" y="5.5" width="91" height="71" rx="3.5" fill="white"/>
<rect x="22.5" y="5.5" width="91" height="71" rx="3.5" stroke="#444444"/>
<path d="M55.4707 42.5986C55.4707 42.4684 55.4414 42.348 55.3828 42.2373C55.3275 42.1234 55.2119 42.0208 55.0361 41.9297C54.8636 41.8353 54.6032 41.7539 54.2549 41.6855C53.9619 41.6237 53.6966 41.5505 53.459 41.4658C53.2246 41.3812 53.0244 41.2786 52.8584 41.1582C52.6956 41.0378 52.5703 40.8962 52.4824 40.7334C52.3945 40.5706 52.3506 40.3802 52.3506 40.1621C52.3506 39.9538 52.3962 39.7568 52.4873 39.5713C52.5817 39.3857 52.7135 39.2214 52.8828 39.0781C53.0553 38.9349 53.262 38.8226 53.5029 38.7412C53.7438 38.6598 54.0124 38.6191 54.3086 38.6191C54.7318 38.6191 55.0931 38.694 55.3926 38.8438C55.6921 38.9935 55.9215 39.1937 56.0811 39.4443C56.2406 39.6917 56.3203 39.9668 56.3203 40.2695H55.417C55.417 40.123 55.373 39.9814 55.2852 39.8447C55.2005 39.7048 55.0752 39.5892 54.9092 39.498C54.7464 39.4069 54.5462 39.3613 54.3086 39.3613C54.0579 39.3613 53.8545 39.4004 53.6982 39.4785C53.5452 39.5534 53.4329 39.6494 53.3613 39.7666C53.293 39.8838 53.2588 40.0075 53.2588 40.1377C53.2588 40.2354 53.2751 40.3232 53.3076 40.4014C53.3434 40.4762 53.4053 40.5462 53.4932 40.6113C53.5811 40.6732 53.7048 40.7318 53.8643 40.7871C54.0238 40.8424 54.2272 40.8978 54.4746 40.9531C54.9076 41.0508 55.264 41.168 55.5439 41.3047C55.8239 41.4414 56.0322 41.609 56.1689 41.8076C56.3057 42.0062 56.374 42.2471 56.374 42.5303C56.374 42.7614 56.3252 42.973 56.2275 43.165C56.1331 43.3571 55.9948 43.5231 55.8125 43.6631C55.6335 43.7998 55.4186 43.9072 55.168 43.9854C54.9206 44.0602 54.6423 44.0977 54.333 44.0977C53.8675 44.0977 53.4736 44.0146 53.1514 43.8486C52.8291 43.6826 52.585 43.4678 52.4189 43.2041C52.2529 42.9404 52.1699 42.6621 52.1699 42.3691H53.0781C53.0911 42.6165 53.1628 42.8135 53.293 42.96C53.4232 43.1032 53.5827 43.2057 53.7715 43.2676C53.9603 43.3262 54.1475 43.3555 54.333 43.3555C54.5804 43.3555 54.7871 43.3229 54.9531 43.2578C55.1224 43.1927 55.251 43.1032 55.3389 42.9893C55.4268 42.8753 55.4707 42.7451 55.4707 42.5986ZM58.4639 36.5V44H57.5605V36.5H58.4639ZM58.249 41.1582L57.873 41.1436C57.8763 40.7822 57.93 40.4486 58.0342 40.1426C58.1383 39.8333 58.2848 39.5648 58.4736 39.3369C58.6624 39.109 58.887 38.9333 59.1475 38.8096C59.4111 38.6826 59.7025 38.6191 60.0215 38.6191C60.2819 38.6191 60.5163 38.6549 60.7246 38.7266C60.9329 38.7949 61.1104 38.9056 61.2568 39.0586C61.4066 39.2116 61.5205 39.4102 61.5986 39.6543C61.6768 39.8952 61.7158 40.1898 61.7158 40.5381V44H60.8076V40.5283C60.8076 40.2516 60.7669 40.0303 60.6855 39.8643C60.6042 39.695 60.4854 39.5729 60.3291 39.498C60.1729 39.4199 59.9808 39.3809 59.7529 39.3809C59.5283 39.3809 59.3232 39.4281 59.1377 39.5225C58.9554 39.6169 58.7975 39.7471 58.6641 39.9131C58.5339 40.0791 58.4313 40.2695 58.3564 40.4844C58.2848 40.696 58.249 40.9206 58.249 41.1582ZM62.8291 41.417V41.3047C62.8291 40.9238 62.8844 40.5706 62.9951 40.2451C63.1058 39.9163 63.2653 39.6315 63.4736 39.3906C63.682 39.1465 63.9342 38.9577 64.2305 38.8242C64.5267 38.6875 64.8587 38.6191 65.2266 38.6191C65.5977 38.6191 65.9313 38.6875 66.2275 38.8242C66.527 38.9577 66.7809 39.1465 66.9893 39.3906C67.2008 39.6315 67.362 39.9163 67.4727 40.2451C67.5833 40.5706 67.6387 40.9238 67.6387 41.3047V41.417C67.6387 41.7979 67.5833 42.151 67.4727 42.4766C67.362 42.8021 67.2008 43.0869 66.9893 43.3311C66.7809 43.5719 66.5286 43.7607 66.2324 43.8975C65.9395 44.0309 65.6074 44.0977 65.2363 44.0977C64.8652 44.0977 64.5316 44.0309 64.2354 43.8975C63.9391 43.7607 63.6852 43.5719 63.4736 43.3311C63.2653 43.0869 63.1058 42.8021 62.9951 42.4766C62.8844 42.151 62.8291 41.7979 62.8291 41.417ZM63.7324 41.3047V41.417C63.7324 41.6807 63.7633 41.9297 63.8252 42.1641C63.887 42.3952 63.9798 42.6003 64.1035 42.7793C64.2305 42.9583 64.3883 43.0999 64.5771 43.2041C64.766 43.305 64.9857 43.3555 65.2363 43.3555C65.4837 43.3555 65.7002 43.305 65.8857 43.2041C66.0745 43.0999 66.2308 42.9583 66.3545 42.7793C66.4782 42.6003 66.571 42.3952 66.6328 42.1641C66.6979 41.9297 66.7305 41.6807 66.7305 41.417V41.3047C66.7305 41.0443 66.6979 40.7985 66.6328 40.5674C66.571 40.333 66.4766 40.1263 66.3496 39.9473C66.2259 39.765 66.0697 39.6217 65.8809 39.5176C65.6953 39.4134 65.4772 39.3613 65.2266 39.3613C64.9792 39.3613 64.7611 39.4134 64.5723 39.5176C64.3867 39.6217 64.2305 39.765 64.1035 39.9473C63.9798 40.1263 63.887 40.333 63.8252 40.5674C63.7633 40.7985 63.7324 41.0443 63.7324 41.3047ZM70.1094 43.0625L71.4668 38.7168H72.0625L71.9453 39.5811L70.5635 44H69.9824L70.1094 43.0625ZM69.1963 38.7168L70.3535 43.1113L70.4365 44H69.8262L68.293 38.7168H69.1963ZM73.3613 43.0771L74.4648 38.7168H75.3633L73.8301 44H73.2246L73.3613 43.0771ZM72.1943 38.7168L73.5225 42.9893L73.6738 44H73.0977L71.6768 39.5713L71.5596 38.7168H72.1943ZM78.4834 44.0977C78.1156 44.0977 77.7819 44.0358 77.4824 43.9121C77.1862 43.7852 76.9307 43.6077 76.7158 43.3799C76.5042 43.152 76.3415 42.8818 76.2275 42.5693C76.1136 42.2568 76.0566 41.915 76.0566 41.5439V41.3389C76.0566 40.9092 76.1201 40.5267 76.2471 40.1914C76.374 39.8529 76.5465 39.5664 76.7646 39.332C76.9827 39.0977 77.2301 38.9202 77.5068 38.7998C77.7835 38.6794 78.07 38.6191 78.3662 38.6191C78.7438 38.6191 79.0693 38.6842 79.3428 38.8145C79.6195 38.9447 79.8457 39.127 80.0215 39.3613C80.1973 39.5924 80.3275 39.8659 80.4121 40.1816C80.4967 40.4941 80.5391 40.8359 80.5391 41.207V41.6123H76.5938V40.875H79.6357V40.8066C79.6227 40.5723 79.5739 40.3444 79.4893 40.123C79.4079 39.9017 79.2777 39.7194 79.0986 39.5762C78.9196 39.4329 78.6755 39.3613 78.3662 39.3613C78.1611 39.3613 77.9723 39.4053 77.7998 39.4932C77.6273 39.5778 77.4792 39.7048 77.3555 39.874C77.2318 40.0433 77.1357 40.25 77.0674 40.4941C76.999 40.7383 76.9648 41.0199 76.9648 41.3389V41.5439C76.9648 41.7946 76.999 42.0306 77.0674 42.252C77.139 42.4701 77.2415 42.6621 77.375 42.8281C77.5117 42.9941 77.6761 43.1243 77.8682 43.2188C78.0635 43.3132 78.2848 43.3604 78.5322 43.3604C78.8512 43.3604 79.1214 43.2952 79.3428 43.165C79.5641 43.0348 79.7578 42.8607 79.9238 42.6426L80.4707 43.0771C80.3568 43.2497 80.2119 43.4141 80.0361 43.5703C79.8604 43.7266 79.6439 43.8535 79.3867 43.9512C79.1328 44.0488 78.8317 44.0977 78.4834 44.0977ZM82.4971 39.5469V44H81.5938V38.7168H82.4727L82.4971 39.5469ZM84.1475 38.6875L84.1426 39.5273C84.0677 39.5111 83.9961 39.5013 83.9277 39.498C83.8626 39.4915 83.7878 39.4883 83.7031 39.4883C83.4948 39.4883 83.3109 39.5208 83.1514 39.5859C82.9919 39.651 82.8568 39.7422 82.7461 39.8594C82.6354 39.9766 82.5475 40.1165 82.4824 40.2793C82.4206 40.4388 82.3799 40.6146 82.3604 40.8066L82.1064 40.9531C82.1064 40.6341 82.1374 40.3346 82.1992 40.0547C82.2643 39.7747 82.3636 39.5273 82.4971 39.3125C82.6305 39.0944 82.7998 38.9251 83.0049 38.8047C83.2132 38.681 83.4606 38.6191 83.7471 38.6191C83.8122 38.6191 83.887 38.6273 83.9717 38.6436C84.0563 38.6566 84.1149 38.6712 84.1475 38.6875Z" fill="black"/>
<rect x="98.5" y="13.5" width="7" height="7" rx="3.5" fill="white"/>
<rect x="98.5" y="13.5" width="7" height="7" rx="3.5" stroke="#444444"/>
<rect width="17" height="81" transform="translate(119)" fill="#E3E3E3"/>
<rect width="17" height="81" fill="#E3E3E3"/>
</svg>
