<svg width="38" height="55" viewBox="0 0 38 55" fill="none" xmlns="http://www.w3.org/2000/svg">
<rect x="0.5" y="0.5" width="37" height="31" rx="3.5" fill="white"/>
<rect x="0.5" y="0.5" width="37" height="31" rx="3.5" stroke="#444444"/>
<path d="M10 10.5H28C33.2467 10.5 37.5 14.7533 37.5 20V36C37.5 46.2173 29.2173 54.5 19 54.5C8.78273 54.5 0.5 46.2173 0.5 36V20C0.5 14.7533 4.7533 10.5 10 10.5Z" fill="white"/>
<path d="M10 10.5H28C33.2467 10.5 37.5 14.7533 37.5 20V36C37.5 46.2173 29.2173 54.5 19 54.5C8.78273 54.5 0.5 46.2173 0.5 36V20C0.5 14.7533 4.7533 10.5 10 10.5Z" stroke="#444444"/>
<path d="M12 12.5H26C31.2467 12.5 35.5 16.7533 35.5 22V36C35.5 45.1127 28.1127 52.5 19 52.5C9.8873 52.5 2.5 45.1127 2.5 36V22C2.5 16.7533 6.7533 12.5 12 12.5Z" fill="white"/>
<path d="M12 12.5H26C31.2467 12.5 35.5 16.7533 35.5 22V36C35.5 45.1127 28.1127 52.5 19 52.5C9.8873 52.5 2.5 45.1127 2.5 36V22C2.5 16.7533 6.7533 12.5 12 12.5Z" stroke="#444444"/>
<path d="M14 33.3516L15.4111 28.3906H16.0947L15.6992 30.3193L14.1807 35.5H13.502L14 33.3516ZM12.54 28.3906L13.6631 33.2539L14 35.5H13.3262L11.6025 28.3906H12.54ZM17.9209 33.249L19.0195 28.3906H19.9619L18.2432 35.5H17.5693L17.9209 33.249ZM16.1973 28.3906L17.5693 33.3516L18.0674 35.5H17.3887L15.9238 30.3193L15.5234 28.3906H16.1973ZM25.2988 33.2393H26.2363C26.1875 33.6885 26.0589 34.0905 25.8506 34.4453C25.6423 34.8001 25.3477 35.0817 24.9668 35.29C24.5859 35.4951 24.1107 35.5977 23.541 35.5977C23.1243 35.5977 22.7451 35.5195 22.4033 35.3633C22.0648 35.207 21.7734 34.9857 21.5293 34.6992C21.2852 34.4095 21.0964 34.0628 20.9629 33.6592C20.8327 33.2523 20.7676 32.7998 20.7676 32.3018V31.5938C20.7676 31.0957 20.8327 30.6449 20.9629 30.2412C21.0964 29.8343 21.2868 29.486 21.5342 29.1963C21.7848 28.9066 22.0859 28.6836 22.4375 28.5273C22.7891 28.3711 23.1846 28.293 23.624 28.293C24.1611 28.293 24.6152 28.3939 24.9863 28.5957C25.3574 28.7975 25.6455 29.0775 25.8506 29.4355C26.0589 29.7904 26.1875 30.2021 26.2363 30.6709H25.2988C25.2533 30.3389 25.1686 30.054 25.0449 29.8164C24.9212 29.5755 24.7454 29.39 24.5176 29.2598C24.2897 29.1296 23.9919 29.0645 23.624 29.0645C23.3083 29.0645 23.0299 29.1247 22.7891 29.2451C22.5514 29.3656 22.3512 29.5365 22.1885 29.7578C22.029 29.9792 21.9085 30.2445 21.8271 30.5537C21.7458 30.863 21.7051 31.2064 21.7051 31.584V32.3018C21.7051 32.6501 21.7409 32.9772 21.8125 33.2832C21.8874 33.5892 21.9997 33.8577 22.1494 34.0889C22.2992 34.32 22.4896 34.5023 22.7207 34.6357C22.9518 34.766 23.2253 34.8311 23.541 34.8311C23.9414 34.8311 24.2604 34.7676 24.498 34.6406C24.7357 34.5137 24.9147 34.3314 25.0352 34.0938C25.1589 33.8561 25.2467 33.5713 25.2988 33.2393Z" fill="black"/>
</svg>
